<?xml version="1.0" standalone="no"?>
<!DOCTYPE svg PUBLIC "-//W3C//DTD SVG 20010904//EN"
 "http://www.w3.org/TR/2001/REC-SVG-20010904/DTD/svg10.dtd">
<svg version="1.0" xmlns="http://www.w3.org/2000/svg"
 width="2480.000000pt" height="2480.000000pt" viewBox="0 0 2480.000000 2480.000000"
 preserveAspectRatio="xMidYMid meet">
<metadata>
Created by potrace 1.14, written by Peter Selinger 2001-2017
</metadata>
<g transform="translate(0.000000,2480.000000) scale(0.100000,-0.100000)"
fill="#000000" stroke="none">
<path d="M1153 24060 c-2 -3 -9 -6 -14 -6 -5 -1 -10 -2 -11 -3 -2 -2 -14 -5
-28 -7 -13 -2 -27 -9 -31 -16 -4 -6 -12 -7 -18 -4 -6 4 -11 2 -11 -3 0 -6 -5
-11 -10 -11 -17 0 -100 -78 -103 -97 0 -4 -9 -17 -19 -27 -10 -11 -18 -28 -18
-37 0 -10 -4 -20 -9 -23 -5 -4 -8 -17 -6 -31 1 -14 -1 -27 -5 -30 -3 -2 -6
-27 -5 -54 1 -30 -3 -51 -9 -51 -8 0 -8 -3 0 -8 12 -8 12 -61 0 -81 -6 -9 -5
-12 1 -8 6 4 9 -16 8 -51 -1 -31 3 -60 9 -64 7 -5 7 -8 1 -8 -6 0 -9 -30 -9
-72 1 -40 -3 -79 -8 -85 -6 -8 -7 -13 -1 -13 11 0 10 -141 -2 -160 -5 -8 -4
-11 2 -7 5 4 9 -36 9 -104 -1 -60 3 -109 7 -109 5 0 5 -6 1 -12 -11 -18 -12
-48 -2 -48 5 0 6 -5 2 -12 -9 -15 -10 -58 -1 -81 3 -9 2 -19 -3 -22 -9 -6 -8
-24 3 -42 6 -9 3 -11 -9 -6 -13 5 -15 3 -9 -7 13 -20 13 -120 0 -120 -7 0 -7
-3 0 -8 14 -9 14 -72 0 -72 -7 0 -7 -3 0 -8 14 -10 14 -324 0 -334 -6 -5 -5
-8 2 -8 15 0 13 -41 -2 -52 -6 -5 -6 -8 1 -8 13 0 13 -58 0 -79 -6 -9 -5 -12
1 -8 6 4 9 -12 8 -43 -1 -28 2 -50 8 -50 5 0 4 -7 -3 -15 -10 -12 -10 -15 1
-15 11 0 11 -3 -1 -11 -12 -8 -12 -12 -2 -16 9 -4 10 -8 2 -18 -8 -9 -8 -15 0
-20 6 -3 7 -11 4 -17 -11 -17 -10 -78 1 -78 6 0 3 -5 -5 -11 -12 -8 -12 -12
-2 -16 9 -4 10 -8 2 -18 -8 -9 -8 -15 0 -20 7 -4 7 -12 0 -26 -8 -14 -7 -19 2
-19 8 0 9 -3 3 -8 -5 -4 -10 -27 -10 -52 0 -25 -4 -48 -10 -52 -6 -5 -6 -8 1
-8 13 0 13 -68 1 -87 -5 -7 -5 -13 0 -13 4 0 8 -85 8 -190 0 -104 4 -190 8
-190 5 0 5 -5 1 -11 -4 -7 -7 -30 -8 -53 -1 -22 -5 -47 -10 -55 -6 -9 -5 -12
1 -8 12 7 10 -114 -2 -133 -5 -8 -4 -11 2 -7 6 4 9 -16 9 -52 -1 -37 -5 -57
-11 -53 -5 3 -5 -1 1 -9 14 -18 14 -121 0 -131 -8 -5 -8 -8 0 -8 13 0 13 -58
0 -79 -6 -9 -5 -12 1 -8 13 8 11 -52 -2 -73 -5 -8 -4 -11 2 -7 5 3 9 -25 9
-74 -1 -46 3 -79 9 -79 7 0 7 -3 0 -8 -12 -8 -14 -272 -2 -272 4 0 4 -8 -1
-17 -6 -10 -9 -34 -8 -53 2 -19 -2 -41 -8 -49 -8 -11 -8 -13 0 -8 13 7 12
-112 -1 -133 -6 -9 -4 -11 4 -6 9 6 11 -2 6 -34 -5 -33 -3 -40 7 -34 7 4 5 -2
-5 -13 -9 -11 -14 -23 -10 -27 10 -10 10 -178 0 -200 -6 -12 -5 -16 1 -12 6 3
9 -16 8 -49 0 -30 -5 -55 -11 -55 -5 0 -4 -4 4 -9 8 -5 11 -16 8 -25 -4 -9 -1
-16 6 -16 7 0 8 -3 2 -8 -13 -9 -15 -52 -3 -52 5 0 6 -6 2 -12 -11 -18 -12
-48 -2 -48 5 0 6 -5 2 -12 -9 -15 -10 -58 -1 -81 3 -9 3 -17 -1 -17 -11 0 -8
-164 3 -172 6 -5 6 -8 -2 -8 -7 0 -10 -14 -9 -37 2 -21 -2 -44 -8 -52 -8 -11
-8 -13 0 -8 13 7 12 -112 -1 -133 -5 -8 -4 -11 2 -7 12 7 11 -121 -1 -141 -4
-6 -3 -12 1 -12 11 0 11 -80 0 -97 -4 -6 -2 -15 4 -19 8 -5 9 -3 4 6 -5 9 -4
11 4 6 6 -4 8 -12 5 -18 -10 -16 -10 -158 -1 -158 5 0 5 -5 1 -12 -9 -15 -10
-58 -1 -81 3 -9 3 -17 -1 -17 -11 0 -8 -184 3 -192 7 -5 7 -8 0 -8 -11 0 -12
-171 0 -189 3 -6 3 -11 -2 -11 -12 0 -10 -104 2 -112 7 -5 7 -8 0 -8 -5 0 -10
-13 -10 -30 0 -16 5 -30 10 -30 6 0 3 -5 -5 -10 -13 -9 -13 -11 0 -20 10 -6
11 -10 3 -10 -7 0 -13 -7 -13 -16 0 -9 5 -12 12 -8 7 4 5 -2 -5 -13 -9 -11
-14 -23 -10 -26 11 -11 9 -137 -2 -137 -6 0 -6 -3 1 -8 12 -8 12 -61 0 -81 -6
-9 -5 -12 1 -8 12 7 10 -114 -2 -133 -5 -8 -4 -11 2 -7 12 8 11 -122 -1 -142
-6 -9 -5 -12 2 -7 8 4 10 -5 8 -29 -1 -19 1 -35 6 -35 5 0 4 -8 -1 -18 -6 -11
-6 -24 1 -36 6 -10 7 -16 2 -13 -13 7 -11 -286 1 -295 7 -5 7 -8 0 -8 -11 0
-12 -101 -1 -118 3 -6 0 -13 -6 -16 -10 -5 -10 -7 0 -12 10 -5 10 -9 1 -20 -9
-11 -8 -14 2 -14 9 0 10 -3 4 -8 -12 -8 -14 -82 -2 -82 4 0 3 -8 -2 -18 -6
-11 -6 -24 1 -36 6 -10 6 -16 1 -13 -12 8 -11 -126 2 -135 7 -5 7 -8 0 -8 -11
0 -12 -101 -1 -118 3 -6 0 -13 -6 -16 -10 -5 -10 -7 0 -12 10 -5 10 -9 1 -20
-9 -11 -8 -14 2 -14 9 0 10 -3 4 -8 -12 -8 -14 -82 -2 -82 4 0 3 -9 -3 -19 -7
-14 -6 -21 3 -24 6 -3 8 -6 2 -6 -6 -1 -9 -33 -8 -82 2 -58 0 -78 -9 -73 -7 5
-8 3 -3 -6 5 -8 9 -52 9 -99 1 -47 5 -91 9 -98 4 -6 1 -14 -5 -16 -10 -4 -10
-8 1 -15 10 -7 10 -11 1 -17 -9 -6 -9 -10 1 -16 9 -5 10 -9 3 -9 -7 0 -15 -7
-18 -16 -3 -9 -2 -12 5 -9 7 5 8 -7 4 -35 -5 -33 -3 -40 7 -34 7 4 5 -2 -5
-13 -9 -11 -14 -22 -11 -26 12 -11 12 -97 0 -97 -6 0 -5 -4 3 -9 9 -6 10 -10
2 -16 -9 -5 -9 -10 -1 -20 12 -15 8 -124 -5 -146 -5 -7 -4 -10 2 -6 12 7 11
-121 -1 -141 -4 -6 -3 -12 3 -12 12 0 9 -159 -4 -179 -5 -9 -4 -12 2 -8 6 4 9
-19 7 -63 -1 -51 1 -68 9 -63 7 4 6 -1 -2 -10 -7 -9 -10 -17 -5 -17 5 0 9 -19
8 -42 0 -24 5 -49 10 -57 9 -12 8 -13 -3 -6 -11 6 -12 5 -5 -6 10 -16 13 -32
17 -76 1 -18 5 -33 10 -33 4 0 7 -13 7 -30 0 -16 3 -30 8 -30 4 0 8 -10 8 -23
3 -34 8 -50 21 -65 7 -7 10 -19 7 -27 -4 -8 -1 -15 5 -15 6 0 11 -8 11 -18 0
-10 6 -26 14 -37 7 -11 14 -24 14 -28 1 -9 73 -140 81 -147 4 -3 17 -22 31
-42 14 -21 29 -38 33 -38 5 0 6 -4 2 -9 -3 -6 3 -15 14 -20 11 -6 23 -20 26
-31 4 -11 11 -18 16 -15 5 4 9 1 9 -6 0 -7 24 -34 53 -61 28 -26 60 -56 70
-66 11 -9 23 -16 28 -14 5 1 9 -2 9 -8 0 -5 21 -24 48 -41 26 -18 49 -37 50
-41 2 -4 7 -6 12 -3 5 3 14 0 22 -7 20 -19 118 -69 118 -61 0 5 4 3 8 -3 7
-10 107 -51 107 -44 0 2 11 -2 23 -9 13 -7 36 -15 50 -18 42 -8 57 -11 57 -13
0 -2 32 -7 73 -11 17 -2 32 -7 32 -11 0 -11 8928 -10 8934 1 3 5 19 7 36 6 16
-1 30 0 30 4 0 4 14 8 31 9 17 1 40 7 50 13 11 5 19 7 19 3 0 -3 7 -1 15 6 12
10 15 10 15 -1 0 -10 3 -10 8 -3 6 9 40 25 62 29 3 0 15 6 28 13 12 7 22 9 22
5 0 -4 5 -1 10 7 5 8 13 15 17 16 23 2 63 17 63 24 0 4 18 15 40 25 22 10 40
21 40 25 0 3 16 14 35 23 19 9 35 22 35 29 0 6 2 9 5 6 3 -3 20 6 36 21 70 60
196 191 184 191 -3 0 8 13 24 29 16 16 27 32 24 35 -3 3 2 8 11 12 9 3 16 15
16 25 0 10 4 19 8 19 5 0 15 12 23 28 7 15 24 44 36 65 13 20 20 37 17 37 -3
0 1 11 10 25 9 13 16 31 16 40 0 8 4 15 8 15 5 0 9 6 9 13 1 14 22 74 35 100
5 10 6 22 3 27 -4 6 -2 10 2 10 5 0 9 8 10 18 2 23 11 77 14 77 1 0 3 9 4 20
2 11 7 43 11 70 4 28 7 136 8 242 1 111 5 189 10 186 5 -4 5 0 0 8 -12 19 -12
319 0 312 5 -4 6 -1 0 8 -12 19 -12 959 0 952 5 -4 5 0 0 8 -12 19 -12 319 0
312 5 -4 6 -1 0 8 -12 19 -12 959 0 952 5 -4 5 0 0 8 -12 19 -12 2239 0 2231
5 -3 5 1 0 9 -12 19 -12 959 0 952 5 -4 5 0 0 8 -12 19 -12 2239 0 2232 5 -4
5 0 0 8 -12 19 -12 959 0 952 5 -4 5 0 0 8 -5 8 -9 84 -10 169 -2 212 -3 222
-14 215 -5 -3 -7 0 -4 9 5 14 -16 64 -40 93 -49 63 -124 121 -145 113 -2 -1
-7 3 -10 9 -4 6 -21 11 -39 13 -18 1 -32 6 -32 11 0 5 -6 5 -13 -2 -10 -8 -17
-7 -26 2 -9 9 -14 9 -21 -3 -9 -13 -11 -13 -20 0 -8 12 -10 13 -10 1 0 -8 -3
-12 -6 -8 -4 3 -21 0 -39 -8 -19 -7 -37 -10 -41 -7 -4 4 -4 1 0 -5 4 -8 2 -13
-7 -13 -8 0 -25 -9 -38 -21 -63 -54 -147 -131 -215 -195 -41 -39 -74 -69 -74
-67 0 2 -20 -17 -45 -42 -25 -25 -47 -45 -50 -45 -2 0 -28 -24 -58 -52 -96
-94 -169 -158 -179 -158 -5 0 -7 -4 -4 -9 3 -5 -5 -16 -19 -25 -14 -9 -40 -31
-59 -49 -18 -18 -73 -68 -121 -112 -82 -74 -186 -171 -255 -237 -16 -16 -34
-28 -40 -28 -6 0 -8 -4 -5 -10 3 -5 2 -10 -3 -10 -5 0 -35 -25 -67 -55 -31
-30 -61 -55 -65 -55 -5 0 -12 -9 -15 -21 -4 -11 -9 -18 -12 -15 -3 2 -24 -15
-48 -39 -23 -24 -45 -41 -49 -38 -3 4 -6 -2 -6 -12 0 -10 -3 -16 -6 -12 -3 3
-23 -12 -43 -34 -21 -21 -43 -39 -50 -39 -7 0 -9 -4 -6 -10 3 -5 2 -10 -3 -10
-4 0 -41 -31 -81 -70 -40 -38 -75 -70 -77 -70 -2 0 -31 -27 -64 -59 -33 -33
-60 -57 -60 -54 0 3 -25 -20 -55 -52 -30 -31 -55 -54 -55 -52 0 2 -24 -19 -54
-47 -136 -129 -154 -144 -160 -139 -3 4 -6 -1 -6 -10 0 -10 -4 -17 -8 -17 -4
0 -40 -30 -79 -67 -103 -98 -193 -180 -193 -177 0 2 -29 -26 -65 -61 -36 -35
-65 -61 -65 -59 0 2 -22 -17 -48 -43 -80 -79 -143 -137 -176 -160 -16 -13 -26
-23 -22 -23 4 0 -7 -12 -26 -27 -37 -31 -108 -95 -147 -133 -14 -13 -29 -24
-33 -22 -5 1 -8 -2 -8 -7 0 -11 -4 -15 -100 -101 -40 -36 -92 -84 -117 -107
-24 -24 -48 -43 -53 -43 -6 0 -10 -7 -10 -15 0 -8 -4 -15 -9 -15 -5 0 -30 -20
-55 -45 -26 -25 -51 -45 -56 -45 -5 0 -12 -9 -15 -20 -3 -11 -11 -20 -16 -20
-6 0 -26 -16 -46 -35 -20 -19 -40 -35 -45 -35 -5 0 -6 -4 -3 -10 3 -5 2 -10
-2 -10 -5 0 -39 -28 -75 -62 -36 -35 -70 -64 -74 -65 -5 -1 -11 -10 -15 -20
-4 -10 -8 -14 -8 -9 -1 4 -21 -12 -46 -37 -25 -26 -45 -44 -45 -42 0 3 -36
-31 -80 -74 -44 -43 -80 -76 -80 -72 0 3 -11 -6 -24 -21 -13 -16 -27 -28 -32
-28 -5 0 -18 -13 -29 -29 -11 -17 -21 -28 -23 -26 -2 2 -27 -18 -56 -45 -120
-116 -166 -157 -170 -153 -2 3 -7 -5 -11 -16 -3 -12 -10 -19 -15 -16 -4 3 -11
-2 -14 -11 -3 -8 -10 -12 -16 -9 -5 3 -10 2 -10 -4 0 -6 -11 -21 -25 -35 -14
-14 -25 -24 -25 -22 0 1 -29 -25 -64 -58 -35 -34 -86 -81 -114 -106 -58 -52
-230 -210 -281 -257 -19 -18 -39 -33 -44 -33 -6 0 -7 -3 -4 -6 7 -8 -36 -44
-52 -44 -6 0 -11 5 -11 10 0 6 -7 10 -15 10 -8 0 -15 7 -15 15 0 8 -4 15 -9
15 -5 0 -22 12 -39 28 -46 42 -82 72 -82 68 0 -2 -28 23 -62 55 -34 33 -66 59
-71 59 -4 0 -5 5 -2 10 3 6 0 10 -8 10 -7 0 -22 10 -33 23 -11 12 -47 45 -79
72 -33 28 -66 58 -74 68 -9 9 -21 17 -28 17 -6 0 -14 8 -17 18 -3 10 -18 25
-33 34 -16 10 -59 46 -97 82 -37 36 -72 66 -76 68 -11 4 -102 84 -165 146 -30
28 -59 52 -65 52 -6 0 -8 5 -5 10 3 6 1 10 -6 10 -6 0 -24 12 -39 28 -15 15
-44 42 -66 60 -34 30 -93 81 -182 161 -15 13 -44 37 -66 55 -21 17 -62 53 -90
79 -93 88 -149 137 -158 137 -5 0 -6 5 -3 10 3 6 1 10 -4 10 -11 0 -33 17
-104 83 -22 20 -44 37 -49 37 -4 0 -8 7 -8 15 0 8 -4 15 -8 15 -5 0 -18 8 -29
18 -12 9 -40 33 -63 52 -44 36 -101 87 -154 137 -16 15 -43 38 -60 51 -16 12
-26 22 -21 22 5 0 -2 8 -15 17 -36 25 -58 44 -97 81 -19 17 -36 32 -38 32 -2
0 -25 21 -52 48 -27 26 -63 58 -81 72 -19 14 -57 48 -87 75 -29 28 -77 70
-105 95 -29 25 -65 56 -80 70 -16 14 -51 45 -80 70 -28 25 -67 59 -86 77 -18
17 -34 29 -34 26 0 -3 -9 6 -21 21 -11 14 -24 26 -29 26 -4 0 -35 27 -68 60
-33 33 -62 60 -66 60 -4 0 -19 12 -34 28 -15 15 -48 44 -72 66 -57 48 -152
132 -192 169 -17 15 -34 27 -39 27 -5 0 -9 7 -9 15 0 8 -4 15 -9 15 -4 0 -22
14 -39 30 -18 17 -34 30 -36 30 -5 0 -85 72 -158 142 -15 14 -28 25 -28 23 0
-2 -15 11 -34 28 -70 66 -120 107 -128 107 -5 0 -6 5 -3 10 3 6 0 10 -7 10 -7
0 -34 19 -59 43 -25 23 -83 76 -129 117 -46 41 -96 88 -111 103 -16 16 -29 26
-29 23 0 -5 -18 10 -105 91 -19 17 -35 30 -35 28 0 -2 -17 14 -38 36 -22 21
-44 39 -51 39 -7 0 -9 5 -6 10 3 6 3 10 -2 10 -4 0 -21 12 -38 26 -84 72 -155
135 -214 191 -94 88 -111 103 -116 103 -2 0 -15 10 -28 23 -14 12 -49 43 -78
69 -30 26 -67 59 -84 74 -16 15 -56 51 -87 80 -32 30 -61 54 -65 54 -5 0 -21
13 -38 28 -16 16 -33 29 -37 30 -4 2 -13 5 -20 7 -91 31 -103 34 -110 22 -5
-8 -8 -8 -8 -1 0 11 -56 14 -67 4z"/>
<path d="M14030 24062 c0 -4 -26 -8 -57 -10 -31 -2 -61 -6 -67 -10 -6 -3 -18
-8 -26 -10 -41 -8 -66 -13 -77 -14 -7 -1 -13 -5 -13 -10 0 -4 -3 -7 -7 -7 -5
1 -10 1 -13 -1 -3 -1 -14 -3 -26 -5 -12 -3 -42 -13 -67 -24 -26 -11 -47 -17
-47 -13 0 4 -5 -1 -11 -11 -6 -9 -14 -15 -20 -12 -5 4 -9 1 -9 -4 0 -6 -3 -10
-7 -9 -15 3 -73 -28 -66 -35 3 -4 -1 -7 -9 -7 -22 0 -162 -105 -228 -171 -60
-59 -155 -169 -146 -169 3 0 -6 -12 -19 -26 -14 -15 -22 -30 -19 -35 3 -5 1
-9 -4 -9 -5 0 -15 -12 -23 -27 -8 -16 -20 -34 -27 -41 -7 -8 -10 -18 -7 -23 4
-5 2 -9 -3 -9 -6 0 -13 -12 -17 -27 -3 -15 -10 -30 -13 -33 -7 -5 -52 -124
-56 -149 -2 -8 -8 -17 -13 -18 -6 -2 -9 -12 -6 -22 3 -11 -1 -29 -7 -41 -10
-18 -10 -21 2 -15 10 6 11 5 1 -6 -7 -7 -13 -23 -13 -36 0 -13 -6 -23 -12 -23
-9 0 -8 -4 2 -10 8 -5 10 -10 5 -10 -6 0 -11 -22 -10 -50 0 -28 -2 -50 -5 -50
-3 0 -5 -12 -4 -27 1 -16 -4 -34 -10 -42 -8 -11 -8 -13 0 -8 8 4 10 -14 7 -61
-2 -37 -3 -76 -3 -87 1 -11 1 -51 1 -90 0 -38 -1 -79 -1 -90 1 -11 0 -42 0
-70 0 -27 0 -59 1 -70 1 -23 0 -215 -1 -230 -1 -5 1 -34 3 -63 3 -29 0 -55 -5
-58 -5 -4 -5 -10 0 -17 5 -7 7 -21 5 -32 -2 -11 -4 -24 -4 -30 7 -136 6 -155
-3 -155 -8 0 -8 -3 0 -8 13 -9 12 -85 -1 -94 -7 -5 -7 -8 0 -8 11 0 13 -119 2
-137 -4 -6 -3 -14 2 -18 5 -3 7 -15 5 -28 -3 -12 -5 -26 -5 -32 7 -100 6 -155
-3 -155 -8 0 -8 -3 0 -8 13 -9 12 -85 -1 -94 -7 -5 -7 -8 0 -8 11 0 13 -119 2
-137 -4 -6 -3 -14 2 -18 5 -3 7 -15 5 -28 -3 -12 -5 -26 -5 -32 7 -100 6 -155
-3 -155 -8 0 -8 -3 0 -8 13 -9 12 -85 -1 -94 -7 -5 -7 -8 0 -8 11 0 13 -119 2
-137 -4 -6 -3 -14 2 -18 5 -3 7 -15 5 -28 -3 -12 -5 -26 -5 -32 7 -100 6 -155
-3 -155 -8 0 -8 -3 0 -8 13 -9 12 -85 -1 -94 -7 -5 -7 -8 0 -8 11 0 13 -119 2
-137 -4 -6 -3 -14 2 -18 5 -3 7 -15 5 -28 -3 -12 -5 -26 -5 -32 7 -100 6 -155
-3 -155 -8 0 -8 -3 0 -8 13 -9 12 -85 -1 -94 -7 -5 -7 -8 0 -8 11 0 13 -119 2
-137 -4 -6 -3 -14 2 -18 5 -3 7 -15 5 -28 -3 -12 -5 -26 -5 -32 7 -100 6 -155
-3 -155 -8 0 -8 -3 0 -8 13 -9 12 -85 -1 -94 -7 -5 -7 -8 0 -8 11 0 13 -119 2
-137 -4 -6 -3 -14 2 -18 5 -3 7 -15 5 -28 -3 -12 -5 -26 -5 -32 7 -100 6 -155
-3 -155 -8 0 -8 -3 0 -8 13 -9 12 -85 -1 -94 -7 -5 -7 -8 0 -8 11 0 13 -119 2
-137 -4 -6 -3 -14 2 -18 5 -3 7 -15 5 -28 -3 -12 -5 -26 -5 -32 7 -100 6 -155
-3 -155 -8 0 -8 -3 0 -8 13 -9 12 -85 -1 -94 -7 -5 -7 -8 0 -8 11 0 13 -119 2
-137 -4 -6 -3 -14 2 -18 5 -3 7 -15 5 -28 -3 -12 -5 -26 -5 -32 7 -100 6 -155
-3 -155 -8 0 -8 -3 0 -8 13 -9 12 -85 -1 -94 -7 -5 -7 -8 0 -8 11 0 13 -119 2
-137 -4 -6 -3 -14 2 -18 5 -3 7 -15 5 -28 -3 -12 -5 -26 -5 -32 7 -100 6 -155
-3 -155 -8 0 -8 -3 0 -8 13 -9 12 -85 -1 -94 -7 -5 -7 -8 0 -8 11 0 13 -119 2
-137 -4 -6 -4 -14 1 -16 4 -3 6 -32 5 -64 -2 -32 -3 -65 -3 -73 0 -8 0 -37 0
-65 0 -27 0 -59 1 -70 0 -11 0 -51 0 -90 0 -38 -1 -79 -1 -90 1 -11 0 -42 0
-70 0 -27 0 -59 1 -70 0 -11 0 -51 0 -90 0 -38 -1 -79 -1 -90 1 -11 0 -42 0
-70 0 -27 0 -59 1 -70 0 -11 0 -51 0 -90 0 -38 -1 -79 -1 -90 1 -11 0 -42 0
-70 0 -27 0 -59 1 -70 0 -11 0 -51 0 -90 0 -38 -1 -79 -1 -90 1 -11 0 -42 0
-70 0 -27 0 -59 1 -70 0 -11 0 -51 0 -90 0 -38 -1 -79 -1 -90 1 -11 0 -42 0
-70 0 -27 0 -59 1 -70 0 -11 0 -51 0 -90 0 -38 -1 -79 -1 -90 1 -11 0 -42 0
-70 0 -27 0 -59 1 -70 0 -11 0 -51 0 -90 0 -38 -1 -79 -1 -90 1 -11 0 -42 0
-70 0 -27 0 -59 1 -70 0 -11 0 -51 0 -90 0 -38 -1 -79 -1 -90 1 -11 0 -42 0
-70 0 -27 0 -59 1 -70 0 -11 0 -51 0 -90 0 -38 -1 -79 -1 -90 1 -11 0 -42 0
-70 0 -27 0 -59 1 -70 0 -11 0 -51 0 -90 0 -38 -1 -79 -1 -90 1 -11 0 -42 0
-70 0 -27 0 -59 1 -70 0 -11 0 -51 0 -90 0 -38 -1 -79 -1 -90 1 -41 0 -120 0
-130 -1 -5 1 -31 3 -57 2 -30 -1 -48 -7 -48 -8 0 -8 -2 0 -8 6 -4 10 -20 9
-35 -1 -15 2 -30 7 -33 4 -3 6 -10 2 -15 -7 -13 35 -119 48 -119 5 0 7 -4 3
-9 -3 -5 5 -17 17 -25 12 -9 19 -16 15 -16 -17 0 71 -67 95 -72 7 -2 16 -6 19
-10 3 -5 17 -9 32 -10 15 -1 27 -5 27 -9 0 -11 149 -8 156 2 3 5 10 7 15 4 5
-4 9 -1 9 5 0 6 4 9 9 6 12 -8 80 39 141 97 27 26 52 47 54 47 2 0 21 17 43
38 93 88 203 186 217 194 9 5 14 13 11 19 -4 5 -1 9 6 9 7 0 19 7 28 15 74 70
108 101 116 105 6 3 9 8 7 13 -1 4 2 7 6 7 10 0 70 50 118 98 19 17 38 32 44
32 6 0 8 5 5 10 -3 6 -2 10 3 10 6 0 31 19 56 43 25 23 56 51 69 62 90 76 146
125 182 160 23 22 57 51 74 65 18 13 64 55 102 92 38 38 69 66 69 64 0 -2 15
10 33 27 104 99 167 155 167 150 0 -3 20 16 45 41 25 26 45 45 45 42 0 -2 17
12 39 32 76 72 134 122 143 122 5 0 6 5 3 10 -3 6 -2 10 3 10 5 0 29 19 53 41
24 23 55 50 69 61 14 11 48 42 76 69 29 27 57 49 63 49 6 0 11 7 11 17 0 9 3
14 6 10 3 -3 21 9 38 26 68 66 104 95 112 89 4 -4 4 -2 1 4 -4 7 3 19 16 27
13 8 44 35 70 60 26 26 47 44 47 41 0 -2 15 10 33 28 18 18 67 62 108 98 41
36 89 80 107 98 17 18 32 30 32 27 0 -3 16 10 37 30 20 19 40 35 45 35 5 0 6
5 3 10 -3 6 -2 10 4 10 5 0 28 18 50 40 22 22 43 40 46 40 3 0 18 12 33 28 30
29 85 78 177 157 32 28 79 69 104 91 104 94 126 114 134 114 5 0 6 4 2 9 -3 5
4 12 15 16 11 3 20 13 20 21 0 8 3 13 8 12 4 -1 23 12 42 30 19 18 38 32 42
32 5 0 8 7 8 15 0 8 3 14 8 13 8 -3 37 21 93 76 21 21 39 36 39 34 0 -3 22 15
48 41 70 67 160 145 172 149 6 2 8 8 4 13 -3 5 1 9 8 9 8 0 21 8 29 18 20 22
86 81 123 110 16 12 25 22 20 22 -5 0 3 8 16 17 28 19 67 53 115 98 18 17 61
55 96 85 34 30 77 69 95 85 40 36 154 139 185 166 12 10 27 19 32 19 6 0 7 3
4 7 -4 3 6 16 21 27 28 21 82 69 134 118 15 15 28 25 28 23 0 -2 20 16 45 41
25 24 50 44 56 44 5 0 7 5 4 10 -3 6 -2 10 4 10 6 0 28 18 51 40 22 21 40 36
40 32 0 -3 7 4 16 16 8 12 22 22 30 22 8 0 12 5 9 10 -3 6 -3 10 2 10 4 0 36
26 71 58 34 33 62 57 62 55 0 -2 12 8 28 22 23 22 29 23 38 10 6 -8 14 -12 17
-8 4 3 7 -2 7 -12 0 -10 2 -16 5 -13 5 5 24 -12 195 -174 45 -43 83 -78 85
-78 2 0 36 -31 76 -70 39 -38 73 -70 75 -70 2 0 24 -21 49 -47 25 -26 45 -43
45 -38 0 6 9 -3 20 -20 11 -16 20 -26 20 -22 0 4 6 2 14 -5 8 -7 12 -16 9 -20
-2 -5 1 -8 8 -8 6 0 43 -31 82 -70 38 -38 71 -70 73 -70 4 0 93 -81 149 -137
24 -23 46 -39 49 -36 3 4 6 -1 6 -9 0 -9 15 -26 34 -39 19 -13 32 -27 30 -31
-3 -4 0 -8 6 -8 6 0 24 -13 40 -30 16 -16 35 -30 41 -30 7 0 10 -3 7 -6 -4 -3
12 -22 35 -42 23 -20 57 -53 75 -71 17 -19 32 -31 32 -26 0 4 9 -2 20 -15 11
-13 20 -27 20 -32 0 -4 5 -8 11 -8 6 0 35 -24 65 -54 30 -30 54 -53 54 -51 0
2 14 -10 30 -27 17 -16 30 -35 30 -41 0 -7 4 -6 10 3 8 13 10 12 10 -3 0 -10
7 -20 15 -23 8 -4 48 -39 89 -79 41 -40 77 -71 79 -68 3 2 8 -5 12 -16 3 -12
11 -21 17 -21 5 0 29 -20 52 -45 24 -25 48 -45 54 -45 7 0 12 -7 12 -16 0 -8
5 -12 10 -9 6 3 10 -1 10 -9 0 -9 4 -16 10 -16 5 0 20 -11 33 -24 14 -14 28
-22 31 -19 3 4 6 1 6 -6 0 -6 12 -23 28 -37 40 -36 164 -150 242 -224 38 -36
94 -87 124 -115 30 -27 88 -81 129 -120 159 -149 199 -185 208 -185 5 0 9 -6
9 -14 0 -8 4 -16 10 -18 10 -3 120 -103 238 -215 36 -35 66 -63 68 -63 1 0 24
-21 52 -47 116 -112 233 -218 242 -221 6 -2 10 -10 10 -18 0 -8 4 -14 10 -14
5 0 23 -14 40 -30 17 -17 35 -30 40 -30 6 0 10 -6 10 -14 0 -7 9 -16 21 -19
12 -3 18 -10 14 -16 -3 -6 -2 -11 3 -11 5 0 33 -22 62 -50 29 -27 57 -50 62
-50 5 0 6 -4 3 -10 -3 -5 -1 -10 4 -10 6 0 34 -22 62 -50 28 -27 55 -50 60
-50 5 0 9 -7 9 -15 0 -8 4 -15 9 -15 8 0 87 -71 209 -187 24 -24 48 -43 53
-43 5 0 9 -7 9 -15 0 -8 4 -15 9 -15 5 0 32 -21 59 -47 28 -27 72 -69 100 -95
27 -27 55 -48 62 -48 7 0 11 -3 8 -6 -4 -3 12 -22 35 -42 22 -20 60 -56 84
-79 24 -24 48 -43 53 -43 6 0 10 -7 10 -15 0 -8 4 -15 9 -15 6 0 30 -19 54
-42 24 -24 57 -55 73 -70 16 -15 34 -33 41 -40 7 -7 40 -38 74 -68 34 -30 91
-83 128 -118 85 -81 152 -114 242 -120 40 -2 69 0 69 6 0 5 11 8 25 7 14 -2
23 1 19 6 -3 5 4 9 15 9 12 0 21 4 21 10 0 5 4 9 9 7 12 -3 101 73 101 86 0 4
7 15 15 23 8 9 18 27 22 42 3 15 10 30 15 33 5 3 9 28 10 57 1 28 6 48 11 45
5 -3 5 2 0 13 -10 23 -10 45 0 62 5 6 4 12 -1 12 -10 0 -9 50 2 68 4 7 3 12
-2 12 -10 0 -9 50 2 68 4 7 3 12 -1 12 -5 0 -9 22 -8 50 0 27 4 50 9 50 5 0 2
8 -5 17 -12 15 -12 16 1 8 12 -7 13 -6 4 6 -12 16 -12 78 0 97 4 7 3 12 -3 12
-10 0 -8 31 4 49 3 5 1 12 -4 15 -9 6 -6 50 5 67 2 4 1 10 -4 13 -10 6 -8 68
2 84 4 7 3 12 -2 12 -10 0 -9 50 2 68 4 7 3 12 -2 12 -10 0 -9 50 2 68 4 7 3
12 -1 12 -5 0 -9 22 -8 50 0 27 4 50 9 50 5 0 2 8 -5 17 -12 15 -12 16 1 8 12
-7 13 -6 4 6 -12 16 -12 78 0 97 4 7 3 12 -3 12 -10 0 -8 31 4 49 3 5 1 12 -4
15 -9 6 -6 50 5 67 2 4 1 10 -4 13 -10 6 -8 68 2 84 4 7 3 12 -2 12 -10 0 -9
50 2 68 4 7 3 12 -2 12 -10 0 -9 50 2 68 4 7 3 12 -1 12 -5 0 -9 22 -8 50 0
27 4 50 9 50 5 0 2 8 -5 17 -12 15 -12 16 1 8 12 -7 13 -6 4 6 -12 16 -12 78
0 97 4 7 3 12 -3 12 -10 0 -8 31 4 49 3 5 1 12 -4 15 -9 6 -6 50 5 67 2 4 1
10 -4 13 -10 6 -8 68 2 84 4 7 3 12 -2 12 -10 0 -9 50 2 68 4 7 3 12 -2 12
-10 0 -9 50 2 68 4 7 3 12 -1 12 -5 0 -9 22 -8 50 0 27 4 50 9 50 5 0 2 8 -5
17 -12 15 -12 16 1 8 12 -7 13 -6 4 6 -12 16 -12 78 0 97 4 7 3 12 -3 12 -10
0 -8 31 4 49 3 5 1 12 -4 15 -9 6 -6 50 5 67 2 4 1 10 -4 13 -10 6 -8 68 2 84
4 7 3 12 -1 12 -5 0 -9 22 -8 50 0 27 4 50 9 50 5 0 2 8 -5 17 -12 15 -12 16
1 8 12 -7 13 -6 4 6 -12 16 -12 78 0 97 4 7 3 12 -2 12 -10 0 -9 50 2 68 4 7
3 12 -2 12 -12 0 -11 32 2 49 9 12 8 13 -4 6 -13 -8 -13 -7 -1 8 7 10 9 17 3
17 -11 0 -11 18 1 37 4 6 3 14 -1 17 -11 6 -9 77 2 94 4 7 3 12 -3 12 -10 0
-10 18 2 37 4 6 3 15 -3 18 -7 4 -7 12 -2 18 4 7 7 21 5 32 -9 67 -10 86 -1
91 5 3 4 11 -2 19 -6 7 -7 16 -3 18 9 6 10 47 1 63 -7 12 -3 78 6 92 4 7 3 12
-2 12 -10 0 -9 50 2 68 4 7 3 12 -2 12 -10 0 -9 50 2 68 4 7 3 12 -1 12 -5 0
-9 22 -8 50 0 27 4 50 9 50 5 0 2 8 -5 17 -12 15 -12 16 1 8 12 -7 13 -6 4 6
-12 16 -12 78 0 97 4 7 3 12 -3 12 -10 0 -8 31 4 49 3 5 1 12 -4 15 -9 6 -6
50 5 67 2 4 0 10 -5 14 -10 5 -8 36 4 54 3 5 1 13 -5 16 -7 4 -7 12 -2 18 4 7
7 21 5 32 -9 67 -10 86 -1 91 5 3 4 11 -2 19 -6 7 -7 16 -3 18 9 6 10 47 1 63
-7 12 -3 78 6 92 4 7 3 12 -1 12 -5 0 -9 22 -8 50 0 27 4 50 9 50 5 0 2 8 -5
17 -12 15 -12 16 1 8 12 -7 13 -6 4 6 -12 16 -12 78 0 97 4 7 3 12 -2 12 -10
0 -9 50 2 68 4 7 3 12 -2 12 -12 0 -11 32 2 49 9 12 8 13 -4 6 -13 -8 -13 -7
-1 8 7 10 9 17 3 17 -11 0 -11 18 1 37 4 6 3 14 -1 17 -11 6 -9 77 2 94 4 7 3
12 -2 12 -10 0 -9 50 2 68 4 7 3 12 -2 12 -10 0 -9 50 2 68 4 7 3 12 -2 12
-10 0 -9 50 2 68 4 7 3 12 -1 12 -5 0 -9 22 -8 50 0 27 4 50 9 50 5 0 2 8 -5
17 -12 15 -12 16 1 8 12 -7 13 -6 4 6 -12 16 -12 78 0 97 4 7 3 12 -3 12 -10
0 -8 31 4 49 3 5 1 12 -4 15 -9 6 -6 50 5 67 2 4 1 10 -4 13 -10 6 -8 68 2 84
4 7 3 12 -2 12 -10 0 -9 50 2 68 4 7 3 12 -2 12 -10 0 -9 50 2 68 4 7 3 12 -1
12 -5 0 -9 22 -8 50 0 27 4 50 9 50 5 0 2 8 -5 17 -12 15 -12 16 1 8 12 -7 13
-6 4 6 -12 16 -12 78 0 97 4 7 3 12 -3 12 -10 0 -8 31 4 49 3 5 1 12 -4 15 -9
6 -6 50 5 67 2 4 1 10 -4 13 -10 6 -8 68 2 84 4 7 3 12 -2 12 -10 0 -9 50 2
68 4 7 3 12 -2 12 -10 0 -9 50 2 68 4 7 3 12 -1 12 -5 0 -9 22 -8 50 0 27 4
50 9 50 5 0 2 8 -5 17 -12 15 -12 16 1 8 12 -7 13 -6 4 6 -12 16 -12 78 0 97
4 7 3 12 -3 12 -10 0 -8 31 4 49 3 5 1 12 -4 15 -9 6 -6 50 5 67 2 4 1 10 -4
13 -10 6 -8 68 2 84 4 7 3 12 -2 12 -10 0 -9 50 2 68 4 7 3 12 -2 12 -10 0 -9
50 2 68 4 7 3 12 -1 12 -5 0 -9 22 -8 50 0 27 4 50 9 50 5 0 2 8 -5 17 -12 15
-12 16 1 8 12 -7 13 -6 4 6 -12 16 -12 78 0 97 4 7 3 12 -3 12 -10 0 -8 31 4
49 3 5 1 12 -4 15 -9 6 -6 50 5 67 2 4 1 10 -4 13 -10 6 -8 68 2 84 4 7 3 12
-1 12 -5 0 -9 22 -8 50 0 27 4 50 9 50 5 0 2 8 -5 17 -12 15 -12 16 1 8 12 -7
13 -6 4 6 -12 16 -12 78 0 97 4 7 3 12 -2 12 -10 0 -9 50 2 68 4 7 3 12 -2 12
-12 0 -11 32 2 49 9 12 8 13 -4 6 -13 -8 -13 -7 -1 8 7 10 9 17 3 17 -11 0
-11 18 1 37 4 6 3 14 -1 17 -11 6 -9 77 2 94 4 7 3 12 -3 12 -10 0 -10 18 2
37 4 6 3 15 -3 18 -7 4 -7 12 -2 18 4 7 7 21 5 32 -9 67 -10 86 -1 91 5 3 4
11 -2 19 -6 7 -7 16 -3 18 9 6 10 47 1 63 -7 12 -3 78 6 92 4 7 3 12 -2 12
-10 0 -9 50 2 68 4 7 3 12 -2 12 -10 0 -9 50 2 68 4 7 3 12 -1 12 -5 0 -9 22
-8 50 0 27 4 50 9 50 5 0 2 8 -5 17 -12 15 -12 16 1 8 12 -7 13 -6 4 6 -12 16
-12 78 0 97 4 7 3 12 -3 12 -10 0 -8 31 4 49 3 5 1 12 -4 15 -9 6 -6 50 5 67
2 4 0 10 -5 14 -10 5 -8 36 4 54 3 5 1 13 -5 16 -7 4 -7 12 -2 18 4 7 7 21 5
32 -10 71 -10 85 1 85 7 0 7 3 1 8 -13 9 -15 52 -3 52 5 0 6 6 1 13 -7 11 -9
31 -15 140 -1 26 -5 47 -8 47 -4 0 -6 14 -5 30 1 17 -2 33 -7 36 -4 3 -6 10
-3 15 4 5 3 15 -2 22 -8 12 -8 14 -18 59 -3 15 -10 40 -16 55 -6 16 -12 36
-15 47 -2 10 -12 34 -24 53 -11 19 -14 31 -8 27 7 -4 5 2 -4 13 -10 11 -18 27
-18 36 0 9 -4 17 -9 17 -5 0 -14 14 -22 31 -14 36 -110 179 -148 222 -63 72
-152 153 -163 149 -5 -1 -8 6 -8 15 0 9 -3 14 -6 10 -3 -3 -18 5 -31 18 -14
13 -37 29 -52 37 -14 7 -30 19 -34 25 -4 7 -16 13 -26 13 -9 0 -27 9 -39 20
-12 12 -22 18 -22 15 0 -3 -17 3 -39 14 -21 11 -41 17 -45 14 -3 -4 -6 -2 -6
4 0 5 -23 16 -51 23 -27 8 -52 17 -55 22 -3 4 -11 5 -19 1 -9 -3 -21 -1 -28 4
-6 5 -25 10 -42 12 -16 2 -34 7 -40 11 -5 5 -26 7 -47 6 -20 0 -34 2 -32 6 2
4 -593 6 -1324 5 -1229 -2 -1330 -3 -1345 -19 -9 -9 -17 -19 -17 -21 0 -3 -21
-26 -47 -51 -25 -25 -42 -46 -37 -46 5 0 -4 -9 -21 -20 -16 -11 -26 -20 -21
-20 5 0 -7 -15 -27 -34 -20 -18 -34 -36 -31 -39 3 -3 -4 -8 -15 -12 -19 -6
-25 -17 -22 -37 0 -5 -3 -7 -8 -5 -13 3 -151 -146 -151 -164 0 -6 -4 -7 -10
-4 -5 3 -10 2 -10 -2 0 -5 -19 -28 -42 -51 -22 -23 -39 -42 -36 -42 3 0 -28
-34 -69 -75 -40 -41 -72 -75 -69 -75 2 0 -18 -23 -45 -52 -27 -28 -49 -56 -49
-60 0 -5 -4 -7 -9 -3 -5 3 -12 -4 -16 -15 -3 -11 -13 -20 -20 -20 -9 0 -12 -6
-9 -15 4 -9 0 -15 -10 -15 -9 0 -16 -4 -16 -8 0 -5 -18 -26 -39 -47 -22 -22
-37 -44 -34 -49 3 -5 2 -7 -3 -4 -5 3 -15 0 -22 -8 -7 -8 -10 -14 -7 -14 3 0
-5 -10 -18 -22 -13 -13 -29 -33 -36 -46 -7 -12 -16 -20 -22 -17 -5 4 -10 1
-10 -4 -1 -6 -2 -16 -3 -21 -1 -14 -28 -30 -38 -24 -4 3 -5 -3 -1 -12 4 -12 3
-15 -5 -10 -7 4 -12 1 -12 -8 0 -9 -7 -16 -15 -16 -8 0 -14 -3 -12 -8 1 -4
-14 -23 -34 -42 -19 -19 -37 -39 -40 -45 -2 -5 -8 -9 -13 -7 -5 2 -3 -4 4 -13
7 -9 9 -15 4 -14 -22 4 -34 -2 -34 -17 0 -8 -4 -13 -8 -10 -4 2 -14 1 -22 -5
-11 -6 -12 -9 -2 -9 7 0 10 -5 7 -10 -4 -6 -10 -8 -15 -5 -5 3 -11 -4 -15 -15
-3 -11 -11 -20 -16 -20 -6 0 -33 -24 -61 -52 -28 -29 -47 -46 -44 -38 7 13 6
13 -6 0 -18 -21 -68 -52 -68 -43 0 5 -5 0 -11 -10 -6 -9 -14 -15 -20 -12 -5 4
-15 3 -21 -2 -7 -4 -17 -8 -23 -9 -5 -1 -23 -5 -40 -9 -16 -3 -37 -7 -45 -7
-8 0 -21 -6 -29 -12 -11 -8 -13 -8 -7 2 5 8 0 12 -14 12 -14 0 -19 -4 -14 -12
6 -10 4 -10 -7 -2 -8 6 -21 11 -29 12 -15 0 -61 8 -90 14 -8 2 -30 11 -49 21
-19 9 -43 17 -53 17 -11 0 -17 4 -14 8 3 5 -6 15 -19 22 -14 7 -25 17 -25 22
0 5 -3 7 -7 5 -5 -2 -31 21 -60 50 -28 29 -46 53 -40 54 7 0 2 5 -9 11 -12 5
-27 21 -34 34 -7 13 -22 26 -32 30 -10 3 -16 10 -13 15 4 5 1 9 -6 9 -7 0 -10
3 -6 6 3 3 -16 28 -43 55 -27 27 -46 49 -44 49 3 0 -6 11 -20 24 -15 13 -26
30 -26 37 0 11 -2 11 -10 -1 -8 -12 -10 -12 -10 5 0 11 -9 26 -20 33 -12 7
-18 17 -15 22 3 6 1 10 -5 10 -12 0 -40 24 -40 35 0 3 -15 21 -34 40 -19 18
-31 36 -28 39 3 3 0 6 -6 6 -6 0 -13 9 -17 19 -4 13 -12 18 -22 14 -10 -4 -14
-2 -10 4 4 6 -11 29 -32 51 -22 22 -36 43 -33 46 3 3 -2 6 -11 6 -9 0 -16 6
-14 13 1 6 -4 11 -10 10 -7 -2 -13 4 -13 13 0 9 -5 12 -12 8 -6 -4 -8 -3 -5 4
4 5 -8 26 -27 45 -19 20 -32 38 -28 41 3 3 -3 6 -13 6 -10 0 -16 3 -12 6 8 8
-16 33 -25 27 -5 -2 -8 2 -8 10 0 7 -10 22 -22 33 -13 11 -32 32 -42 46 -11
15 -24 24 -29 21 -6 -3 -7 -1 -3 5 3 6 -14 31 -38 56 -25 24 -42 47 -39 50 4
3 -2 6 -12 6 -10 0 -15 3 -12 7 4 3 -5 16 -18 29 -14 13 -25 28 -25 34 0 5 -7
10 -15 10 -8 0 -15 9 -15 21 0 11 -5 17 -10 14 -6 -3 -13 1 -17 11 -3 9 -20
30 -37 47 -17 16 -30 33 -29 37 1 4 -9 13 -23 20 -14 8 -22 20 -19 27 2 8 1
12 -3 9 -5 -3 -15 4 -23 15 -28 40 -57 68 -65 61 -4 -4 -4 -2 0 5 3 6 -3 21
-14 31 -21 19 -44 20 -841 20 -623 0 -819 -2 -819 -11 0 -8 -3 -8 -9 1 -4 8
-12 14 -16 14 -4 0 -12 -6 -16 -14 -7 -10 -9 -10 -9 0 0 6 -5 12 -11 12 -5 0
-7 -5 -3 -12 5 -7 3 -8 -7 -3 -21 13 -53 14 -61 1 -5 -8 -8 -7 -8 2 0 10 -5
10 -20 2 -11 -6 -26 -8 -33 -3 -18 11 -47 11 -47 -1 0 -6 -4 -5 -9 2 -4 8 -12
14 -16 14 -4 0 -12 -6 -16 -14 -5 -7 -9 -8 -9 -2 0 14 -33 14 -42 0 -5 -8 -8
-7 -8 2 0 9 -5 10 -18 3 -13 -7 -23 -6 -31 2 -9 9 -14 8 -21 -3 -7 -11 -10
-11 -10 -2 0 9 -5 10 -18 3 -13 -7 -23 -6 -31 2 -9 9 -14 8 -21 -3 -7 -11 -10
-11 -10 -2 0 9 -5 10 -18 3 -13 -7 -23 -6 -31 2 -9 9 -14 8 -21 -3 -7 -11 -10
-11 -10 -2 0 9 -5 10 -18 3 -13 -7 -23 -6 -30 1 -9 9 -12 8 -12 -2 0 -12 -2
-12 -9 -2 -4 8 -12 14 -16 14 -4 0 -12 -6 -16 -14 -7 -10 -9 -10 -9 0 0 6 -5
12 -11 12 -5 0 -7 -5 -3 -12 5 -7 3 -8 -7 -3 -21 13 -53 14 -61 1 -5 -8 -8 -7
-8 2 0 10 -5 10 -20 2 -11 -6 -26 -8 -33 -3 -18 11 -47 11 -47 -1 0 -6 -4 -5
-9 2 -4 8 -12 14 -16 14 -4 0 -12 -6 -16 -14 -7 -10 -9 -10 -9 2 0 13 -1 13
-10 0 -5 -8 -10 -10 -10 -5 0 12 -120 13 -139 1 -10 -6 -12 -6 -7 2 4 7 2 12
-3 12 -6 0 -11 -5 -11 -12 0 -9 -3 -9 -12 0 -14 14 -28 16 -28 4z"/>
<path d="M16982 11945 c4 -7 -501 -10 -1508 -10 -1045 1 -1514 -2 -1514 -10 0
-5 -5 -3 -10 5 -5 8 -10 10 -10 4 0 -6 -6 -11 -12 -12 -32 -4 -140 -28 -145
-32 -3 -3 -4 -3 -53 -14 -19 -5 -44 -16 -54 -25 -11 -9 -16 -10 -12 -3 10 17
-2 15 -21 -4 -9 -8 -21 -13 -29 -10 -7 3 -14 1 -16 -3 -2 -4 -39 -27 -82 -49
-44 -23 -75 -42 -70 -42 5 0 -10 -10 -33 -22 -23 -12 -40 -25 -37 -29 2 -4 -5
-10 -16 -14 -11 -3 -20 -11 -20 -17 0 -6 -3 -9 -6 -6 -6 6 -154 -135 -154
-146 0 -3 -16 -23 -35 -43 -19 -20 -33 -38 -31 -40 2 -3 -6 -15 -18 -28 -11
-13 -30 -40 -41 -62 -11 -21 -26 -44 -33 -51 -7 -8 -10 -18 -7 -23 4 -5 1 -9
-6 -9 -7 0 -9 -3 -6 -6 4 -4 -3 -20 -14 -35 -11 -16 -18 -29 -14 -29 3 0 0
-10 -7 -22 -7 -13 -13 -26 -14 -30 -1 -5 -3 -10 -4 -13 -1 -3 -3 -8 -5 -12 -1
-5 -4 -15 -8 -23 -3 -8 -11 -33 -17 -55 -6 -22 -14 -47 -17 -55 -3 -8 -7 -24
-9 -35 -1 -11 -6 -38 -9 -60 -4 -22 -7 -48 -6 -58 0 -9 -4 -15 -8 -13 -4 3 -7
-2193 -6 -4878 0 -4325 2 -4885 15 -4901 8 -11 10 -16 3 -12 -12 7 20 -65 40
-91 59 -74 148 -132 203 -132 13 0 24 -3 24 -7 0 -9 51 -9 66 -1 5 3 19 4 32
3 12 -1 22 1 22 5 0 4 6 7 14 7 20 0 116 63 116 76 0 6 2 8 6 5 3 -3 27 15 53
41 42 40 88 83 290 269 25 23 50 42 54 42 5 0 5 5 2 10 -3 6 -2 10 4 10 5 0
38 27 72 60 34 33 64 60 66 60 2 0 15 11 29 25 14 14 29 25 35 25 6 0 8 3 6 8
-3 4 1 13 9 20 8 7 14 11 14 8 0 -3 29 24 65 60 36 35 67 64 69 64 4 0 98 86
177 162 33 32 64 58 70 58 6 0 7 5 4 10 -3 6 -1 10 5 10 6 0 28 17 49 38 81
78 136 127 144 124 4 -1 7 5 7 13 0 9 7 18 15 21 8 4 37 27 64 53 115 111 183
171 192 171 6 0 7 5 4 10 -3 6 1 10 9 10 9 0 16 7 16 15 0 8 4 15 9 15 10 0
61 45 177 156 41 39 74 69 74 67 0 -2 21 17 46 42 26 25 51 45 55 45 5 0 9 7
9 15 0 8 4 15 10 15 5 0 25 15 43 33 19 17 76 70 127 117 51 47 111 102 132
123 21 20 41 37 43 37 9 0 45 40 45 50 0 6 4 9 8 8 7 -3 31 18 166 144 33 32
65 58 69 58 5 0 5 5 2 10 -3 6 0 10 8 10 8 0 18 7 21 16 4 9 9 15 11 12 3 -2
38 27 79 66 143 137 198 186 209 186 5 0 7 3 4 6 -4 4 8 18 26 33 35 28 95 83
183 168 30 28 54 50 54 48 0 -2 23 19 51 46 28 27 55 49 61 49 5 0 7 4 3 9 -3
5 4 12 15 16 11 4 18 11 15 16 -4 5 -2 9 4 9 9 0 55 41 170 148 25 24 77 72
114 105 38 34 90 82 116 107 26 25 82 77 125 115 43 39 102 93 132 122 30 28
54 51 54 49 0 -1 32 28 72 66 39 37 76 68 80 68 5 0 6 5 3 10 -3 6 -2 10 3 10
5 0 28 17 50 37 37 35 161 149 234 216 17 15 35 27 41 27 6 0 8 3 5 6 -4 3 12
22 35 42 23 20 63 58 89 83 27 26 48 45 48 44 0 -2 17 13 39 33 93 89 161 150
161 145 0 -3 10 7 21 21 12 15 25 24 28 19 3 -4 35 -33 70 -63 35 -30 76 -66
91 -80 66 -62 130 -118 130 -114 0 2 14 -10 30 -28 17 -17 30 -28 30 -25 0 3
15 -9 34 -26 18 -18 59 -54 91 -82 31 -27 71 -62 88 -78 17 -15 35 -27 40 -27
4 0 5 -4 2 -10 -3 -5 -2 -10 2 -10 5 0 27 -17 50 -38 22 -20 66 -59 98 -87 31
-27 74 -67 96 -87 21 -20 39 -35 39 -33 0 2 15 -11 33 -28 18 -18 62 -57 97
-87 35 -30 74 -65 87 -77 13 -13 26 -23 29 -23 6 0 78 -66 141 -128 18 -18 33
-30 33 -26 0 3 20 -13 44 -37 24 -24 70 -66 101 -94 31 -27 70 -61 85 -75 15
-14 53 -47 85 -75 32 -27 66 -57 74 -66 9 -9 24 -19 34 -22 9 -4 17 -14 17
-22 0 -9 4 -14 9 -11 5 3 23 -10 40 -29 17 -20 31 -33 31 -30 0 4 6 0 13 -7 8
-7 47 -42 87 -78 40 -36 94 -85 120 -110 26 -25 69 -64 96 -86 27 -23 74 -65
104 -93 30 -27 61 -50 69 -51 8 0 12 -3 8 -6 -3 -3 29 -36 71 -72 42 -36 89
-79 105 -94 15 -15 27 -25 27 -22 0 4 9 -5 21 -20 11 -14 26 -26 34 -26 7 0
15 -7 19 -15 3 -8 17 -20 31 -27 14 -6 25 -17 25 -25 0 -7 4 -13 9 -13 5 0 28
-17 50 -38 22 -20 61 -55 87 -77 26 -22 62 -55 81 -73 18 -17 36 -32 40 -32 3
0 15 -11 27 -23 11 -13 57 -55 101 -92 44 -38 87 -77 96 -87 9 -10 19 -18 21
-18 3 0 27 -21 54 -46 27 -25 75 -69 108 -97 32 -29 74 -67 93 -84 19 -18 39
-33 44 -33 5 0 9 -6 9 -14 0 -8 9 -17 20 -21 10 -3 30 -19 44 -36 14 -16 27
-29 31 -29 3 0 16 -10 29 -22 13 -13 52 -48 86 -78 35 -30 80 -70 100 -87 19
-18 39 -33 43 -33 5 0 5 -5 2 -10 -3 -6 -1 -10 5 -10 6 0 27 -15 47 -33 72
-64 81 -73 121 -109 23 -21 43 -38 46 -38 2 0 20 -15 39 -33 71 -65 98 -87
108 -87 5 0 8 -3 5 -8 -2 -4 17 -23 44 -42 26 -19 46 -38 43 -42 -2 -5 3 -8
11 -8 9 0 16 -7 16 -17 0 -9 3 -13 6 -10 4 4 26 -14 50 -38 23 -25 45 -45 48
-45 3 0 18 -12 34 -28 17 -15 55 -49 86 -77 32 -27 71 -62 87 -78 17 -15 35
-27 40 -27 5 0 9 -7 9 -17 0 -9 2 -14 5 -11 5 5 68 -48 132 -109 13 -13 26
-23 28 -23 2 0 15 -10 28 -22 13 -13 41 -38 63 -56 21 -19 64 -56 94 -82 117
-103 108 -97 186 -132 12 -6 33 -11 48 -11 14 -1 26 -5 26 -9 0 -4 13 -3 30 2
18 5 32 5 35 -1 4 -5 13 -5 24 1 10 5 21 6 25 3 3 -3 6 -1 6 6 0 7 4 10 9 7
17 -11 112 48 153 93 42 48 74 101 61 101 -5 0 -2 4 5 8 7 5 15 24 19 43 9 53
12 1059 2 1054 -4 -3 -4 7 0 23 5 17 5 36 -1 47 -7 12 -7 16 -1 12 6 -4 11 4
11 18 0 14 -4 22 -9 19 -5 -3 -7 1 -4 8 12 34 13 68 2 68 -8 0 -8 3 -2 8 15
10 19 46 5 37 -9 -5 -9 -2 -2 11 13 25 12 5835 -1 5827 -5 -3 -5 3 1 13 13 24
13 27 2 64 -5 17 -5 28 -1 26 9 -6 8 65 -2 81 -4 6 -3 14 1 17 12 7 9 497 -2
515 -6 9 -5 12 1 8 6 -4 11 4 11 18 0 14 -3 23 -7 21 -3 -2 -6 6 -6 19 0 13 3
21 6 19 10 -6 5 539 -5 555 -6 9 -5 12 1 8 6 -4 11 4 11 18 0 14 -4 22 -9 19
-5 -3 -7 1 -4 8 12 34 13 68 2 68 -8 0 -9 3 -1 8 15 10 15 512 0 512 -7 0 -7
3 -1 8 14 10 19 46 6 37 -6 -3 -9 0 -6 7 12 34 13 68 2 68 -8 0 -8 3 -2 8 13
9 19 46 6 38 -6 -4 -7 4 -2 22 5 15 7 104 5 197 -3 177 -7 225 -18 244 -4 6
-2 11 4 11 6 0 8 5 3 13 -9 15 -13 33 -15 75 -1 17 -6 32 -10 32 -4 0 -8 16
-8 35 0 19 -4 35 -9 35 -4 0 -7 11 -6 25 2 14 0 25 -5 25 -4 0 -10 10 -13 23
-8 36 -31 91 -41 98 -5 4 -6 11 -3 16 4 6 -2 19 -12 29 -10 11 -21 32 -25 47
-3 15 -10 27 -15 27 -5 0 -14 14 -21 30 -7 17 -17 30 -22 30 -5 0 -7 4 -4 9 4
5 3 11 -2 13 -4 1 -21 21 -37 43 -78 106 -262 285 -292 285 -6 0 -13 7 -17 15
-3 8 -12 15 -21 15 -8 0 -15 3 -15 8 0 8 -9 13 -106 61 -38 19 -75 34 -81 34
-7 0 -13 5 -13 10 0 6 -3 8 -6 5 -3 -3 -33 5 -66 18 -34 13 -64 22 -66 19 -3
-3 -11 0 -19 6 -7 6 -13 8 -13 4 0 -4 -7 -2 -15 5 -8 7 -20 10 -27 7 -7 -2
-24 0 -38 5 -50 20 -400 31 -400 13 0 -7 -3 -7 -8 0 -4 6 -14 10 -22 10 -8 0
-18 -4 -22 -10 -5 -6 -8 -5 -8 4 0 10 -3 11 -14 2 -11 -9 -15 -9 -20 1 -5 10
-7 10 -12 0 -3 -6 -11 -9 -17 -5 -18 11 -540 11 -554 0 -7 -5 -13 -6 -13 -1 0
5 -16 9 -35 9 -19 0 -35 -4 -35 -8 0 -5 -5 -5 -11 -2 -16 10 -119 11 -119 1 0
-4 -6 -4 -12 1 -8 6 -248 10 -633 9 l-620 -1 -23 -22 c-12 -13 -20 -23 -17
-23 3 0 -3 -8 -12 -18 -10 -11 -21 -17 -25 -15 -5 2 -8 -1 -8 -7 0 -6 -13 -24
-30 -40 -16 -16 -30 -37 -30 -46 0 -10 -3 -15 -6 -11 -4 3 -23 -13 -43 -35
-20 -23 -51 -57 -69 -75 -19 -18 -31 -33 -28 -33 3 0 -3 -9 -14 -20 -11 -11
-25 -20 -32 -20 -6 0 -9 -3 -6 -6 4 -3 -12 -24 -34 -46 -32 -32 -37 -42 -27
-50 11 -7 11 -8 -1 -6 -16 3 -143 -116 -134 -125 3 -3 -4 -8 -15 -12 -20 -6
-26 -17 -21 -40 1 -5 -1 -7 -5 -3 -9 8 -45 -23 -39 -34 3 -4 -2 -8 -10 -8 -15
0 -21 -12 -17 -33 1 -5 -2 -6 -6 -4 -5 3 -35 -24 -68 -60 -33 -35 -79 -85
-102 -110 -24 -24 -43 -46 -43 -49 0 -2 -16 -20 -35 -40 -19 -20 -33 -40 -29
-45 3 -5 -2 -9 -10 -9 -9 0 -16 -7 -16 -15 0 -8 -7 -15 -16 -15 -8 0 -12 -4
-9 -10 3 -5 -1 -10 -9 -10 -9 0 -16 -4 -16 -8 0 -5 -16 -25 -35 -45 -19 -20
-35 -41 -35 -47 0 -6 -4 -8 -10 -5 -9 6 -14 -7 -11 -27 0 -4 -7 -4 -17 -1 -9
3 -14 3 -10 -2 4 -4 -10 -25 -31 -46 -22 -21 -36 -40 -33 -43 3 -3 0 -6 -7 -6
-7 0 -10 -4 -6 -9 3 -5 0 -13 -6 -17 -8 -4 -9 -3 -5 4 4 7 2 12 -3 12 -10 0
-12 -7 -10 -26 1 -12 -44 -43 -54 -37 -6 3 -7 1 -3 -5 4 -6 -22 -40 -59 -78
-36 -36 -65 -61 -65 -54 0 7 -9 2 -21 -11 -11 -13 -27 -23 -35 -21 -8 2 -14
-2 -14 -9 0 -6 -6 -9 -14 -6 -8 3 -20 -1 -26 -9 -14 -16 -34 -19 -25 -3 5 7 1
7 -14 0 -12 -6 -30 -15 -41 -21 -12 -6 -21 -6 -25 0 -3 5 -15 6 -29 0 -12 -4
-29 -4 -36 0 -8 5 -22 4 -32 -1 -12 -7 -18 -6 -18 1 0 7 -7 7 -21 -1 -15 -8
-19 -8 -15 0 7 11 -5 15 -38 11 -12 -1 -16 2 -11 11 5 8 4 10 -3 5 -6 -4 -21
-2 -32 4 -15 8 -20 8 -20 -2 -1 -7 -6 -4 -13 8 -7 12 -17 19 -23 17 -6 -2 -26
11 -45 29 -18 18 -27 24 -19 13 8 -11 -8 2 -35 30 -28 27 -49 53 -47 57 1 5
-4 8 -12 8 -7 0 -20 8 -27 18 -13 15 -12 16 4 3 15 -12 17 -12 11 3 -3 9 -16
16 -28 16 -17 0 -18 2 -6 10 13 8 12 10 -4 10 -11 0 -17 3 -13 6 3 3 -10 21
-29 39 -19 18 -34 38 -34 44 0 6 -7 11 -17 11 -9 0 -14 3 -10 6 5 5 -20 38
-60 80 -7 7 -13 17 -13 23 0 6 -9 11 -19 11 -13 0 -25 13 -37 40 -10 21 -20
37 -24 35 -4 -2 -14 5 -23 16 -12 13 -13 19 -4 20 6 0 2 4 -10 9 -13 5 -23 17
-23 25 0 9 -4 13 -10 10 -5 -3 -10 -2 -10 3 0 4 -8 17 -19 28 -10 11 -24 30
-30 43 -7 12 -18 20 -26 17 -19 -7 -27 5 -14 21 9 10 8 13 -4 13 -9 0 -19 9
-22 20 -4 11 -11 18 -16 15 -5 -4 -9 0 -9 7 0 8 -9 20 -20 28 -11 8 -20 20
-20 28 0 7 -3 11 -7 9 -5 -3 -14 1 -21 9 -7 8 -10 14 -6 14 4 0 -10 15 -29 34
-25 23 -33 36 -24 40 6 4 2 4 -11 2 -14 -3 -21 0 -20 7 3 13 -26 49 -80 104
-19 18 -31 33 -27 33 4 0 -6 13 -22 29 -45 45 -93 100 -93 106 0 2 -20 24 -45
48 -25 24 -45 49 -45 56 0 6 -4 12 -10 12 -5 1 -15 2 -22 3 -6 0 -13 8 -15 16
-4 13 -3 13 6 0 6 -8 11 -10 11 -5 0 6 -14 23 -30 39 -17 16 -30 33 -30 38 0
5 -4 6 -10 3 -5 -3 -10 -1 -10 4 0 18 -42 61 -53 54 -6 -3 -7 -1 -3 5 3 6 -5
22 -19 36 -14 14 -25 30 -25 36 0 6 -4 8 -10 5 -5 -3 -10 -1 -10 5 0 6 -5 8
-12 4 -8 -5 -8 -2 1 10 12 15 12 17 0 14 -8 -2 -17 -7 -21 -13 -5 -6 -8 -5 -8
3 0 7 -5 10 -10 7 -6 -4 -18 -1 -27 7 -9 7 -14 9 -11 3z"/>
<path d="M2146 11842 c-2 -4 -42 -9 -88 -10 -103 -2 -213 -14 -213 -22 0 -3
-49 -10 -67 -11 -10 0 -18 -5 -18 -10 0 -6 -4 -8 -10 -4 -5 3 -26 -1 -46 -10
-20 -8 -40 -12 -45 -9 -5 3 -9 0 -9 -5 0 -6 -4 -11 -9 -11 -5 0 -20 -4 -33 -9
-13 -5 -27 -9 -32 -9 -5 0 -12 -4 -15 -9 -8 -11 -84 -47 -93 -45 -5 1 -8 -2
-8 -8 0 -5 -6 -10 -13 -10 -7 0 -23 -9 -35 -20 -12 -11 -28 -20 -37 -20 -9 0
-14 -4 -11 -8 3 -4 -11 -16 -30 -27 -19 -10 -34 -22 -34 -27 0 -5 -4 -7 -9 -4
-5 3 -12 -1 -15 -10 -3 -8 -10 -12 -16 -9 -5 3 -10 -1 -10 -10 0 -9 -4 -14 -9
-10 -5 3 -12 -4 -16 -15 -4 -11 -11 -18 -16 -15 -5 4 -9 3 -9 -2 0 -4 -29 -39
-65 -76 -36 -38 -65 -73 -65 -78 0 -5 -4 -9 -10 -9 -5 0 -10 -6 -10 -12 0 -7
-14 -28 -30 -46 -16 -19 -35 -47 -42 -63 -7 -16 -16 -29 -20 -29 -3 0 -9 -13
-13 -30 -4 -16 -10 -30 -15 -30 -5 0 -11 -14 -15 -30 -4 -17 -14 -45 -23 -63
-9 -17 -18 -41 -19 -52 -2 -11 -7 -21 -12 -23 -5 -2 -7 -12 -4 -22 3 -11 1
-20 -4 -20 -6 0 -10 -12 -9 -27 1 -16 -4 -39 -11 -52 -6 -13 -9 -34 -7 -47 2
-13 0 -24 -6 -24 -7 0 -10 -1449 -10 -4480 0 -2464 4 -4480 8 -4480 7 0 11
-20 13 -72 0 -10 5 -18 10 -18 6 0 7 -5 4 -10 -4 -6 -1 -27 6 -48 7 -20 12
-40 11 -44 -1 -5 3 -8 9 -8 5 0 7 -4 4 -10 -3 -5 1 -22 9 -38 8 -16 12 -32 9
-36 -4 -3 -1 -6 5 -6 7 0 12 -6 12 -13 0 -16 57 -127 77 -149 9 -10 13 -18 10
-18 -7 0 14 -28 45 -61 9 -9 14 -19 12 -22 -5 -4 169 -187 178 -187 4 0 24
-16 45 -35 21 -19 46 -38 56 -41 9 -3 17 -10 17 -15 0 -5 6 -9 13 -9 7 0 23
-9 35 -20 12 -11 28 -20 36 -20 8 0 16 -3 18 -7 3 -7 94 -57 107 -59 3 0 20
-6 36 -13 57 -24 110 -41 128 -41 10 0 16 -4 13 -8 -2 -4 5 -8 17 -9 32 -1 60
-7 75 -16 7 -5 12 -3 12 5 0 10 2 10 9 -1 5 -8 28 -14 55 -15 25 0 46 -4 46
-8 0 -4 2190 -8 4866 -8 3879 0 4870 3 4882 13 12 9 14 9 9 0 -5 -8 2 -7 20 2
15 8 34 15 41 15 6 0 12 5 12 10 0 6 7 10 15 10 8 0 32 17 55 38 22 22 40 36
40 33 1 -3 8 8 17 24 10 17 16 33 15 38 -1 4 2 7 6 7 5 0 14 21 20 47 19 75
22 94 12 88 -6 -4 -6 4 0 19 5 14 6 26 2 26 -4 0 -8 8 -9 18 -2 30 -9 50 -21
64 -6 8 -10 17 -7 19 2 3 -12 23 -31 44 -110 125 -164 184 -206 227 -26 26
-46 48 -44 48 2 0 -28 33 -67 74 -40 41 -87 92 -106 115 -19 22 -77 85 -129
138 -51 54 -93 99 -93 100 1 3 -59 70 -136 149 -33 35 -60 64 -58 64 2 0 -23
27 -56 60 -32 33 -57 60 -55 60 2 0 -15 20 -37 44 -61 63 -172 183 -252 271
-38 42 -90 99 -115 125 -25 27 -79 86 -120 131 -41 45 -97 106 -125 135 -89
93 -125 134 -125 144 0 5 -9 12 -20 15 -11 3 -20 10 -20 15 0 5 -24 34 -54 64
-30 30 -52 57 -49 60 4 3 -2 6 -12 6 -10 0 -16 3 -12 6 3 3 -18 30 -46 59 -29
29 -81 86 -117 126 -36 39 -90 98 -120 130 -91 95 -150 162 -150 171 0 4 -7 8
-15 8 -8 0 -15 5 -15 10 0 6 -11 20 -25 32 -14 12 -25 28 -25 35 0 8 -3 12 -7
10 -5 -2 -18 7 -30 20 -12 13 -20 23 -18 23 2 0 -25 30 -61 67 -35 38 -64 71
-64 76 0 4 -7 7 -17 7 -9 0 -13 3 -10 6 3 4 -9 22 -28 41 -19 19 -35 39 -35
44 0 5 -7 9 -15 9 -8 0 -15 4 -15 9 0 4 -13 22 -30 39 -16 18 -30 36 -30 41 0
5 -9 13 -20 16 -11 3 -20 13 -20 21 0 8 -7 14 -17 14 -9 0 -14 3 -11 6 6 5
-30 45 -154 175 -25 27 -44 49 -41 49 3 0 -10 15 -30 34 -20 18 -33 36 -30 40
4 3 -1 6 -9 6 -9 0 -22 10 -31 23 -8 12 -35 43 -61 70 -25 26 -44 47 -42 47 2
0 -26 29 -60 65 -35 36 -64 70 -64 75 0 6 -7 10 -15 10 -8 0 -15 5 -15 10 0 6
-29 40 -65 76 -36 36 -65 69 -65 73 0 4 -20 26 -45 49 -25 23 -45 44 -45 46 0
3 -27 32 -60 65 -33 33 -60 62 -60 65 0 2 -17 22 -37 43 -21 21 -78 83 -128
137 -49 54 -109 118 -132 141 -23 24 -39 46 -35 49 3 3 -3 6 -13 6 -10 0 -16
3 -12 6 3 3 -10 21 -29 39 -19 18 -34 38 -34 44 0 6 -4 11 -9 11 -12 0 -22 10
-91 90 -30 34 -83 92 -117 128 -35 35 -63 69 -63 74 0 5 -4 6 -10 3 -5 -3 -10
-1 -10 5 0 6 -18 30 -41 52 -32 32 -39 45 -34 65 3 13 10 21 15 18 6 -3 10 -3
10 2 0 4 14 22 30 40 17 18 30 37 30 43 0 6 5 8 10 5 6 -3 10 -2 10 3 0 5 23
34 50 63 28 29 50 60 50 68 0 8 3 12 6 9 3 -4 22 12 42 35 20 23 43 46 50 50
6 4 12 12 12 17 0 5 18 27 40 48 21 22 36 42 33 46 -4 3 1 6 10 6 10 0 17 4
17 8 0 5 14 24 30 42 17 18 30 37 30 42 0 4 7 8 15 8 8 0 15 3 15 8 0 4 15 23
33 43 68 76 153 173 177 202 14 17 40 45 58 62 17 18 32 35 32 39 0 3 18 23
40 45 22 21 40 42 40 45 0 4 12 19 28 35 102 105 198 220 194 232 -1 5 1 8 5
7 5 -2 28 19 53 47 25 27 51 56 58 63 6 7 12 18 12 23 0 6 5 7 10 4 6 -3 10
-2 10 3 0 9 37 53 107 128 23 24 40 44 37 44 -2 0 25 29 61 65 36 36 65 69 65
73 0 4 9 13 20 20 11 7 20 17 20 22 0 5 24 34 54 65 30 30 53 55 50 55 -3 0
16 21 41 47 25 26 45 51 45 56 0 4 5 5 10 2 6 -3 10 0 10 8 0 7 12 27 28 44
15 17 58 65 96 106 37 42 78 90 91 107 12 16 25 27 28 23 4 -3 7 -1 7 6 0 7
13 26 30 41 16 15 30 32 30 37 0 5 11 16 25 23 13 7 23 16 22 19 -2 6 45 60
101 117 12 13 22 29 22 35 0 7 3 9 6 6 4 -3 20 12 35 33 16 22 34 40 40 40 5
0 7 5 4 10 -3 6 2 10 11 10 10 0 15 3 12 6 -6 5 28 46 90 111 12 13 22 26 22
29 0 3 18 23 40 45 21 21 37 39 35 39 -3 0 20 25 50 55 29 30 52 55 49 55 -3
0 10 15 28 34 62 64 108 116 108 122 0 3 14 19 30 34 17 15 30 31 30 36 0 4
15 21 33 39 17 17 43 45 57 62 13 18 28 29 32 27 4 -3 8 0 8 6 0 7 19 32 43
57 62 67 68 74 117 134 24 30 50 58 57 62 7 4 13 14 13 21 0 7 11 19 25 26 14
7 23 15 21 18 -3 2 6 14 19 27 14 12 22 25 18 28 -3 4 -1 7 5 7 13 0 71 57 64
64 -3 3 3 8 12 12 9 3 16 10 16 15 0 5 18 26 40 46 22 21 40 42 40 46 0 4 14
21 30 37 17 16 30 34 30 40 0 5 7 10 15 10 8 0 15 6 15 13 0 7 9 19 20 27 11
8 20 17 20 21 0 3 24 31 53 61 56 59 117 128 157 178 14 17 42 50 63 73 20 22
37 45 37 49 0 4 7 8 15 8 8 0 15 4 15 8 0 7 15 24 108 126 17 19 32 40 32 46
0 6 4 8 10 5 5 -3 10 -2 10 3 0 9 11 23 66 84 13 15 24 33 24 39 0 5 5 7 10 4
6 -3 10 -2 10 3 0 5 27 37 60 72 33 35 60 65 60 67 0 2 12 16 28 31 31 32 95
105 132 151 14 17 30 37 36 44 21 23 55 97 49 106 -3 5 -1 11 4 13 14 5 21 88
7 88 -6 0 -5 4 3 9 7 5 9 11 4 14 -6 4 -9 22 -8 41 1 19 -2 33 -6 31 -3 -3 -9
9 -13 25 -6 33 -11 40 -71 104 -45 47 -86 76 -110 76 -9 0 -14 4 -11 8 5 8
-10 10 -101 13 -21 1 -44 7 -52 13 -10 7 -13 7 -8 0 4 -7 -16 -11 -63 -11 -43
0 -67 4 -63 10 4 6 1 7 -8 1 -21 -13 -93 -14 -101 0 -6 8 -8 8 -8 0 0 -7 -15
-12 -35 -12 -24 0 -33 4 -28 12 5 8 3 8 -8 -1 -15 -12 -96 -12 -116 0 -8 5
-13 3 -13 -3 0 -6 -5 -8 -11 -5 -17 11 -59 13 -59 3 0 -5 -6 -6 -12 -2 -19 12
-48 12 -48 1 0 -6 -5 -6 -12 -1 -16 11 -39 11 -55 1 -7 -5 -13 -4 -13 0 0 10
-72 9 -88 -1 -7 -4 -12 -4 -12 1 0 4 -11 8 -25 8 -14 0 -25 -4 -25 -8 0 -4 -7
-4 -17 1 -9 6 -29 6 -45 2 -15 -5 -28 -5 -28 -1 0 9 -31 8 -48 -3 -6 -4 -12
-3 -12 1 0 5 -9 9 -20 9 -11 0 -20 -4 -20 -9 0 -5 -6 -5 -13 2 -10 8 -17 7
-25 -1 -9 -9 -12 -9 -12 0 0 10 -5 10 -20 2 -14 -8 -20 -8 -20 0 0 7 -5 8 -12
3 -22 -13 -79 -13 -71 0 4 7 -1 6 -10 -2 -14 -11 -17 -11 -17 0 0 9 -3 10 -8
3 -10 -15 -72 -16 -72 -1 0 8 -3 9 -8 1 -10 -15 -153 -14 -145 0 5 7 2 7 -8 0
-16 -13 -108 -13 -128 0 -9 6 -12 5 -8 -1 8 -13 -62 -12 -82 1 -10 6 -12 6 -7
-2 4 -7 2 -12 -3 -12 -6 0 -11 6 -11 13 0 8 -3 9 -8 1 -10 -15 -72 -16 -72 -1
0 9 -2 9 -8 1 -8 -14 -120 -13 -141 0 -10 6 -12 6 -7 -2 5 -8 0 -11 -16 -8
-13 3 -24 5 -25 6 -8 5 -61 2 -71 -4 -7 -4 -12 -3 -12 1 0 5 -9 9 -20 9 -11 0
-20 -4 -20 -9 0 -4 -5 -5 -12 -1 -18 11 -88 11 -88 -1 0 -5 -5 -4 -12 3 -7 7
-17 8 -30 1 -10 -5 -18 -6 -18 -2 0 4 -11 8 -25 8 -14 0 -25 -2 -25 -5 0 -7
-59 -4 -67 3 -3 4 -12 2 -20 -5 -7 -6 -16 -8 -20 -5 -3 4 -14 2 -24 -3 -12 -7
-20 -6 -25 2 -5 7 -3 8 6 3 9 -5 11 -4 6 4 -4 6 -13 8 -19 4 -20 -13 -41 -12
-49 0 -5 8 -8 8 -8 1 0 -6 -18 -11 -40 -11 -26 0 -37 4 -33 11 5 7 2 7 -8 -1
-14 -11 -74 -11 -86 0 -3 4 -14 2 -24 -4 -11 -5 -19 -6 -19 -2 0 4 -11 8 -25
8 -14 0 -25 -3 -25 -7 0 -4 -13 -3 -29 2 -19 5 -33 4 -40 -3 -7 -7 -11 -7 -11
-1 0 12 -29 12 -48 0 -6 -4 -12 -3 -12 2 0 10 -30 9 -48 -2 -7 -4 -12 -2 -12
4 0 6 -5 8 -11 4 -21 -13 -71 -15 -63 -2 5 8 3 8 -7 2 -19 -12 -62 -12 -71 1
-5 6 -8 6 -8 -1 0 -7 -15 -12 -35 -12 -20 0 -35 5 -35 12 0 8 -2 8 -8 0 -10
-15 -114 -15 -105 0 5 8 3 8 -8 0 -16 -13 -50 -15 -64 -3 -6 4 -17 4 -25 -1
-8 -5 -21 -5 -32 1 -13 7 -18 6 -18 -2 0 -7 -5 -8 -12 -3 -16 11 -39 11 -55 1
-7 -5 -13 -4 -13 0 0 10 -72 9 -88 -1 -7 -4 -12 -4 -12 1 0 4 -11 8 -25 8 -14
0 -25 -4 -25 -8 0 -4 -7 -4 -17 1 -9 6 -29 6 -45 2 -15 -5 -28 -5 -28 -1 0 9
-31 8 -48 -3 -6 -4 -12 -3 -12 1 0 5 -9 9 -20 9 -11 0 -20 -4 -20 -9 0 -6 -5
-6 -12 -1 -16 11 -39 11 -55 1 -7 -5 -13 -4 -13 0 0 5 -9 9 -20 9 -11 0 -20
-4 -20 -9 0 -4 -5 -5 -12 -1 -18 11 -88 11 -88 0 0 -6 -5 -5 -12 2 -7 7 -17 8
-30 1 -10 -5 -18 -6 -18 -2 0 4 -11 8 -25 8 -14 0 -25 -3 -25 -7 0 -4 -14 -3
-30 2 -19 5 -30 5 -30 -1 0 -6 -6 -7 -12 -2 -17 10 -40 10 -55 -1 -8 -5 -13
-5 -13 1 0 5 -9 9 -20 9 -11 0 -20 -5 -20 -10 0 -6 -5 -5 -12 2 -7 7 -17 8
-30 1 -10 -5 -18 -6 -18 -1 0 9 -58 7 -67 -2 -4 -3 -12 -1 -20 5 -9 8 -17 8
-26 0 -10 -8 -17 -7 -25 1 -9 9 -12 9 -12 0 0 -9 -5 -10 -17 -3 -10 5 -26 5
-40 0 -15 -5 -23 -5 -23 2 0 6 -7 6 -19 -1 -13 -6 -22 -7 -26 0 -3 5 -15 6
-29 0 -12 -4 -29 -4 -36 0 -8 5 -21 5 -31 0 -9 -5 -19 -7 -22 -3 -10 10 -51
10 -64 0 -8 -6 -13 -6 -13 0 0 5 -9 9 -20 9 -11 0 -20 -4 -20 -9 0 -4 -5 -5
-12 -1 -18 11 -88 11 -88 0 0 -6 -5 -5 -12 2 -7 7 -17 8 -30 1 -10 -5 -18 -6
-18 -2 0 4 -11 8 -25 8 -14 0 -25 -3 -25 -7 0 -8 -27 -5 -36 4 -3 4 -16 3 -29
-2 -13 -5 -25 -6 -28 -4 -10 10 -57 11 -57 2 0 -5 -6 -6 -12 -2 -19 12 -48 12
-48 1 0 -6 -5 -6 -12 -1 -16 11 -39 11 -55 1 -7 -5 -13 -4 -13 0 0 10 -72 9
-89 -1 -6 -4 -11 -3 -11 2 0 10 -30 9 -48 -2 -7 -4 -12 -2 -12 4 0 7 -5 8 -12
3 -20 -12 -82 -12 -90 1 -5 8 -8 8 -8 0 0 -6 -18 -11 -40 -11 -24 0 -37 4 -33
10 4 6 1 7 -8 1 -22 -14 -90 -14 -82 0 5 8 3 8 -8 0 -15 -12 -163 -14 -175 -2
-3 4 -15 3 -25 -3 -13 -7 -19 -6 -19 1 0 7 -6 8 -19 0 -13 -6 -22 -7 -26 0 -3
6 -15 6 -29 0 -13 -5 -26 -6 -29 -4 -10 10 -57 11 -57 2 0 -5 -6 -6 -12 -2
-19 12 -48 12 -48 1 0 -6 -5 -6 -12 -1 -16 11 -39 11 -55 1 -7 -5 -13 -4 -13
1 0 9 -51 7 -76 -2 -6 -2 -17 0 -24 4 -8 5 -21 5 -30 0 -9 -5 -22 -5 -30 0 -9
5 -19 5 -27 -2 -8 -6 -13 -6 -13 -1 0 11 -29 11 -48 -1 -7 -4 -12 -2 -12 4 0
8 -6 8 -20 0 -14 -8 -20 -8 -20 0 0 8 -6 8 -20 0 -11 -6 -20 -7 -20 -3 0 10
-52 9 -68 -1 -7 -4 -12 -4 -12 1 0 4 -11 8 -25 8 -14 0 -25 -4 -25 -8 0 -4 -7
-4 -17 1 -9 6 -29 6 -45 2 -15 -5 -28 -5 -28 -1 0 9 -31 8 -48 -3 -6 -4 -12
-3 -12 1 0 5 -9 9 -20 9 -11 0 -20 -4 -20 -9 0 -6 -5 -6 -12 -1 -16 11 -39 11
-55 1 -7 -5 -13 -4 -13 0 0 5 -9 9 -20 9 -11 0 -20 -4 -20 -9 0 -4 -5 -5 -12
-1 -17 11 -88 11 -88 0 0 -5 -6 -3 -13 3 -8 6 -17 7 -21 3 -12 -11 -186 -10
-179 1 4 6 1 7 -8 1 -21 -13 -129 -14 -129 0 0 7 -3 7 -8 1 -8 -12 -72 -17
-72 -6 0 9 -42 7 -58 -3 -7 -4 -12 -4 -12 1 0 4 -11 8 -25 8 -14 0 -25 -4 -25
-8 0 -4 -7 -4 -17 1 -9 6 -29 6 -45 2 -15 -5 -28 -5 -28 -1 0 9 -31 8 -48 -3
-6 -4 -12 -3 -12 1 0 5 -9 9 -20 9 -11 0 -20 -4 -20 -9 0 -6 -5 -6 -12 -1 -16
11 -39 11 -55 1 -7 -5 -13 -4 -13 0 0 5 -9 9 -20 9 -11 0 -20 -4 -20 -9 0 -4
-5 -5 -12 -1 -18 11 -88 11 -88 0 0 -6 -5 -5 -12 2 -7 7 -17 8 -30 1 -10 -5
-18 -6 -18 -2 0 4 -11 8 -25 8 -14 0 -25 -3 -25 -7 0 -8 -27 -4 -36 5 -4 3
-14 2 -24 -3 -10 -5 -19 -7 -22 -5 -9 10 -68 12 -68 3 0 -5 -6 -6 -12 -2 -15
10 -48 13 -48 5 0 -3 -11 -7 -25 -7 -14 -1 -25 3 -25 10 0 6 -4 4 -10 -4 -5
-8 -12 -11 -16 -7 -4 4 -14 1 -22 -6 -13 -10 -14 -9 -7 2 6 11 3 13 -13 9 -13
-4 -22 -1 -22 5 0 9 -2 9 -8 1 -10 -15 -72 -16 -72 -1 0 9 -2 9 -8 1 -9 -15
-112 -15 -112 0 0 8 -3 8 -8 0 -9 -14 -84 -15 -75 -1 4 6 1 7 -8 1 -20 -13
-90 -14 -82 -1 4 6 1 7 -8 1 -21 -13 -92 -14 -108 -1 -10 8 -13 8 -8 1 5 -8
-26 -11 -108 -11 -62 1 -112 5 -109 9 3 4 3 8 0 8 -3 0 -7 -4 -10 -8z"/>
<path d="M18020 10826 c0 -2 8 -10 18 -17 15 -13 16 -12 3 4 -13 16 -21 21
-21 13z"/>
</g>
</svg>
